<?xml version="1.0" encoding="UTF-8" standalone="no"?>
<svg xmlns="http://www.w3.org/2000/svg" version="1.1" viewBox="0.00 0.00 400.00 396.00">
  <path fill="#323232" d="   M 197.40 18.51   Q 196.99 18.29 196.90 18.05   Q 195.83 15.18 193.84 6.38   A 2.26 2.26 0.0 0 1 194.27 4.49   L 196.93 1.11   A 0.66 0.66 0.0 0 1 198.10 1.36   C 199.09 5.66 200.62 14.23 198.45 18.18   A 0.79 0.79 0.0 0 1 197.40 18.51   Z"></path>
  <path fill="#323232" d="   M 185.82 19.57   Q 185.40 19.37 185.29 19.13   Q 184.08 16.30 181.67 7.55   A 2.27 2.27 0.0 0 1 182.01 5.63   L 184.52 2.10   A 0.67 0.66 -35.3 0 1 185.70 2.30   C 186.91 6.57 188.85 15.12 186.87 19.19   A 0.80 0.80 0.0 0 1 185.82 19.57   Z"></path>
  <path fill="#323232" d="   M 156.52 9.28   Q 153.78 9.10 151.90 10.98   A 0.56 0.56 0.0 0 1 150.94 10.64   Q 150.80 9.04 151.65 7.11   A 0.97 0.97 0.0 0 1 152.63 6.55   Q 156.57 6.95 160.50 4.50   Q 160.87 4.26 161.13 4.32   A 0.81 0.81 0.0 0 1 161.63 5.69   L 159.08 8.37   A 0.72 0.72 0.0 0 0 158.91 9.09   C 160.19 12.97 162.23 19.29 160.74 24.10   A 1.05 1.05 0.0 0 1 158.75 24.13   L 154.86 12.77   A 1.05 1.05 0.0 0 1 155.05 11.74   L 156.73 9.78   A 0.30 0.30 0.0 0 0 156.52 9.28   Z"></path>
  <path fill="#323232" d="   M 238.28 22.02   Q 237.95 21.70 237.93 21.44   Q 237.73 18.38 238.34 9.37   A 2.26 2.26 0.0 0 1 239.30 7.68   L 242.82 5.19   A 0.66 0.66 0.0 0 1 243.86 5.76   C 243.59 10.18 242.60 18.84 239.39 22.02   A 0.79 0.79 0.0 0 1 238.28 22.02   Z"></path>
  <circle fill="#323232" cx="175.74" cy="9.07" r="1.74"></circle>
  <path fill="#323232" d="   M 231.20 20.23   C 229.23 19.30 224.39 19.59 225.36 15.95   C 226.25 12.57 229.86 7.79 233.70 10.38   A 2.01 1.99 -82.9 0 1 234.47 11.38   L 235.37 14.00   A 0.78 0.78 0.0 0 1 234.45 15.01   L 230.87 14.12   A 1.39 1.31 41.1 0 0 230.13 14.15   L 229.24 14.46   A 0.44 0.44 0.0 0 0 229.25 15.29   L 233.29 16.67   A 1.79 1.79 0.0 0 1 234.52 18.30   C 234.88 26.27 227.26 27.09 221.37 25.35   C 215.83 23.72 216.63 17.71 218.99 13.99   Q 219.35 13.42 220.04 13.40   A 0.96 0.95 -90.0 0 1 221.01 14.38   Q 220.99 15.33 220.71 17.21   A 2.37 2.35 14.2 0 0 222.25 19.77   Q 226.76 21.40 231.11 20.80   A 0.30 0.30 0.0 0 0 231.20 20.23   Z"></path>
  <path fill="#323232" d="   M 201.00 23.04   L 207.24 19.46   A 1.58 1.58 0.0 0 0 207.62 17.01   L 206.04 15.31   A 1.29 1.28 40.6 0 1 205.91 13.72   L 207.57 11.21   A 0.86 0.86 0.0 0 1 208.88 11.06   C 212.18 14.14 211.54 21.35 208.62 24.30   A 1.96 1.92 -66.4 0 1 207.19 24.87   L 201.43 24.71   A 0.89 0.89 0.0 0 1 201.00 23.04   Z"></path>
  <path fill="#323232" d="   M 172.99 26.24   L 178.35 21.65   A 1.56 1.55 43.1 0 0 178.27 19.22   L 176.44 17.86   A 1.26 1.26 0.0 0 1 176.02 16.35   L 177.17 13.63   A 0.84 0.84 0.0 0 1 178.40 13.24   C 182.15 15.62 182.85 22.69 180.57 26.06   A 1.92 1.89 -77.0 0 1 179.29 26.88   L 173.70 27.77   A 0.88 0.88 0.0 0 1 172.99 26.24   Z"></path>
  <path fill="#323232" d="   M 251.18 15.40   A 2.16 2.16 0.0 0 1 254.16 14.73   L 255.48 15.56   A 5.56 5.37 32.3 0 1 257.31 23.07   L 257.10 23.41   A 5.56 5.37 32.3 0 1 249.53 24.98   L 248.21 24.14   A 2.16 2.16 0.0 0 1 247.54 21.16   L 251.18 15.40   Z   M 254.4971 21.3339   A 1.73 0.96 36.7 0 0 253.6837 19.5303   A 1.73 0.96 36.7 0 0 251.7229 19.2661   A 1.73 0.96 36.7 0 0 252.5363 21.0697   A 1.73 0.96 36.7 0 0 254.4971 21.3339   Z"></path>
  <path fill="#323232" d="   M 149.10 22.19   Q 148.63 21.55 147.69 21.41   A 1.25 1.24 -82.8 0 1 146.63 20.04   L 146.91 17.21   A 0.89 0.89 0.0 0 1 148.13 16.47   Q 150.13 17.27 151.32 19.15   C 153.80 23.09 152.60 26.89 148.55 29.12   C 143.04 32.14 135.45 34.23 135.71 24.54   A 0.76 0.76 0.0 0 1 137.06 24.09   Q 138.23 25.58 139.10 26.09   A 1.38 1.38 0.0 0 0 140.23 26.20   L 148.76 23.27   A 0.70 0.70 0.0 0 0 149.10 22.19   Z"></path>
  <circle fill="#323232" cx="278.73" cy="19.65" r="1.68"></circle>
  <path fill="#323232" d="   M 274.18 28.55   A 0.53 0.53 0.0 0 0 274.77 27.78   Q 274.04 26.46 274.01 25.89   A 0.89 0.88 72.0 0 1 274.47 24.98   L 277.64 23.28   A 0.55 0.55 0.0 0 1 278.45 23.69   Q 279.06 27.82 276.83 31.33   C 274.53 34.95 271.93 34.04 268.66 32.49   Q 266.59 31.50 266.41 28.93   A 0.42 0.42 0.0 0 0 265.71 28.64   C 263.73 30.33 259.83 30.31 258.66 27.70   Q 257.37 24.82 260.44 21.57   A 0.85 0.85 0.0 0 1 261.90 22.04   Q 262.30 24.81 265.31 25.15   A 0.57 0.57 0.0 0 0 265.94 24.64   L 266.36 20.45   A 1.18 1.17 78.2 0 1 266.95 19.54   L 269.33 18.17   A 0.94 0.94 0.0 0 1 270.73 19.08   L 270.09 25.47   A 1.33 1.33 0.0 0 0 270.44 26.51   Q 271.74 27.93 274.18 28.55   Z"></path>
  <rect fill="#323232" x="-3.15" y="-1.24" transform="translate(120.54,23.16) rotate(-29.1)" width="6.30" height="2.48" rx="1.18"></rect>
  <path fill="#323232" d="   M 124.94 39.96   A 0.43 0.43 0.0 0 0 124.63 40.55   Q 126.17 44.16 125.87 46.48   A 1.61 1.61 0.0 0 1 125.16 47.63   L 120.34 50.86   A 0.93 0.93 0.0 0 1 118.98 49.69   L 122.16 43.02   A 1.45 1.45 0.0 0 0 121.00 40.95   L 118.91 40.74   A 1.26 1.25 -0.9 0 1 117.79 39.66   L 117.36 36.56   A 0.64 0.64 0.0 0 1 118.03 35.83   Q 123.18 36.18 127.07 32.43   A 0.19 0.18 51.2 0 0 127.09 32.18   L 126.92 31.92   A 0.03 0.02 52.0 0 0 126.88 31.91   C 120.69 37.27 118.75 27.48 122.19 25.74   C 127.65 22.98 136.39 37.51 124.94 39.96   Z   M 124.5807 29.0464   A 0.80 0.56 -30.3 0 0 123.6075 28.9665   A 0.80 0.56 -30.3 0 0 123.1993 29.8536   A 0.80 0.56 -30.3 0 0 124.1725 29.9335   A 0.80 0.56 -30.3 0 0 124.5807 29.0464   Z"></path>
  <ellipse fill="#323232" cx="0.00" cy="0.00" transform="translate(286.49,28.07) rotate(34.0)" rx="1.95" ry="1.61"></ellipse>
  <circle fill="#323232" cx="147.77" cy="32.99" r="1.77"></circle>
  <path fill="#323232" d="   M 273.87 40.02   L 280.96 39.59   A 1.56 1.56 0.0 0 0 282.36 37.59   L 281.72 35.40   A 1.27 1.26 67.0 0 1 282.30 33.94   L 284.87 32.45   A 0.85 0.85 0.0 0 1 286.09 32.89   C 287.65 37.06 283.93 43.15 280.05 44.47   A 1.93 1.90 -39.9 0 1 278.53 44.35   L 273.52 41.68   A 0.88 0.88 0.0 0 1 273.87 40.02   Z"></path>
  <path fill="#323232" d="   M 113.25 48.18   Q 112.79 48.22 112.58 48.06   Q 110.14 46.21 103.74 39.84   A 2.26 2.26 0.0 0 1 103.09 38.01   L 103.52 33.72   A 0.66 0.66 0.0 0 1 104.64 33.31   C 107.79 36.41 113.68 42.84 113.97 47.34   A 0.79 0.79 0.0 0 1 113.25 48.18   Z"></path>
  <circle fill="#323232" cx="301.42" cy="37.64" r="1.69"></circle>
  <path fill="#323232" d="   M 313.01 55.23   A 0.33 0.33 0.0 0 0 313.53 54.88   Q 312.65 52.12 309.80 50.97   A 0.75 0.75 0.0 0 1 309.74 49.60   C 314.62 47.15 316.53 49.20 318.03 53.91   Q 318.76 56.18 320.37 58.54   A 0.57 0.56 -36.4 0 1 320.25 59.30   Q 317.64 61.39 315.82 60.09   C 313.15 58.20 310.35 59.13 307.53 57.68   Q 303.75 55.74 302.19 52.34   A 1.13 1.10 82.7 0 0 301.41 51.72   Q 299.11 51.24 298.04 50.28   A 0.57 0.57 0.0 0 0 297.23 50.32   C 296.23 51.47 293.62 53.10 291.88 53.07   A 1.10 1.08 63.9 0 1 291.20 52.83   L 286.57 49.23   A 0.94 0.94 0.0 0 1 287.24 47.56   L 294.43 48.28   A 1.49 1.48 -1.2 0 0 296.05 46.60   L 295.71 44.14   A 0.87 0.86 -18.8 0 1 296.14 43.27   L 299.07 41.58   A 0.70 0.70 0.0 0 1 300.11 42.04   Q 301.37 47.96 305.93 45.99   A 0.61 0.61 0.0 0 1 306.78 46.61   L 306.56 48.81   A 1.64 1.64 0.0 0 0 307.13 50.23   L 313.01 55.23   Z"></path>
  <path fill="#323232" d="   M 105.49 60.42   L 107.78 53.66   A 1.57 1.57 0.0 0 0 106.45 51.59   L 104.16 51.36   A 1.28 1.27 -0.8 0 1 103.02 50.26   L 102.61 47.30   A 0.85 0.85 0.0 0 1 103.48 46.33   C 107.96 46.46 112.22 52.24 111.98 56.35   A 1.94 1.91 72.2 0 1 111.29 57.72   L 106.90 61.38   A 0.89 0.88 -10.7 0 1 105.49 60.42   Z"></path>
  <path fill="#323232" d="   M 301.32 57.30   C 300.72 58.00 299.50 58.07 299.05 56.99   Q 298.58 55.83 297.28 55.51   C 296.13 55.22 295.93 54.07 296.61 53.27   C 297.30 52.47 298.46 52.50 298.92 53.59   Q 299.44 54.82 300.66 55.11   C 301.80 55.38 301.92 56.60 301.32 57.30   Z"></path>
  <path fill="#323232" d="   M 91.39 59.95   A 0.51 0.51 0.0 0 0 90.81 59.25   L 86.32 60.29   A 1.15 1.14 -13.1 0 1 84.94 59.43   L 84.22 56.34   A 0.86 0.86 0.0 0 1 84.94 55.30   Q 89.02 54.72 91.68 55.82   C 94.24 56.88 96.78 60.18 95.44 63.17   C 93.25 68.09 88.01 69.43 85.84 63.49   A 0.61 0.61 0.0 0 1 86.53 62.69   Q 89.87 63.31 91.39 59.95   Z"></path>
  <path fill="#323232" d="   M 88.00 71.90   Q 87.56 72.05 87.32 71.94   Q 84.51 70.70 76.80 65.98   A 2.27 2.26 -78.0 0 1 75.74 64.34   L 75.16 60.06   A 0.66 0.66 0.0 0 1 76.16 59.40   C 79.95 61.69 87.18 66.60 88.51 70.92   A 0.80 0.79 -17.8 0 1 88.00 71.90   Z"></path>
  <path fill="#323232" d="   M 309.00 61.98   Q 309.06 62.04 309.09 62.06   C 309.62 62.45 310.25 62.38 310.76 62.79   A 1.14 1.14 0.0 0 1 310.24 64.86   L 308.69 65.02   A 1.17 1.15 21.6 0 0 308.09 65.28   Q 306.60 66.50 305.67 65.65   Q 304.74 64.81 305.81 63.21   A 1.17 1.15 62.7 0 0 306.00 62.59   L 306.01 61.03   A 1.14 1.14 0.0 0 1 308.02 60.31   C 308.48 60.77 308.47 61.41 308.91 61.89   Q 308.93 61.92 309.00 61.98   Z   M 308.07 62.91   Q 307.92 62.87 307.03 63.10   A 0.31 0.30 -36.3 0 0 306.94 63.66   Q 307.42 63.94 307.99 63.74   A 0.47 0.40 -43.6 0 0 308.07 62.91   Z"></path>
  <path fill="#323232" d="   M 329.54 70.29   L 330.04 73.93   A 1.61 1.61 0.0 0 0 331.91 75.29   C 334.41 74.85 335.71 73.48 338.52 73.48   A 0.64 0.64 0.0 0 1 339.16 74.05   C 339.70 79.20 339.97 86.20 333.03 86.51   C 331.19 86.59 330.49 85.34 330.27 83.33   C 330.00 80.90 327.87 81.33 326.86 79.83   Q 326.37 79.09 325.91 77.92   A 0.67 0.67 0.0 0 0 324.87 77.64   Q 323.07 79.05 320.44 79.34   A 2.73 2.73 0.0 0 1 318.05 78.38   L 315.07 74.80   A 1.27 1.24 -69.7 0 1 314.78 74.15   L 314.68 73.46   A 0.59 0.59 0.0 0 1 315.46 72.82   L 322.50 75.21   A 1.52 1.52 0.0 0 0 324.50 73.92   L 324.79 71.04   A 0.70 0.70 0.0 0 1 325.39 70.41   L 329.03 69.91   A 0.46 0.45 -7.7 0 1 329.54 70.29   Z   M 334.4342 78.8550   A 0.94 0.85 45.9 0 0 334.3904 77.5885   A 0.94 0.85 45.9 0 0 333.1258 77.5050   A 0.94 0.85 45.9 0 0 333.1696 78.7715   A 0.94 0.85 45.9 0 0 334.4342 78.8550   Z   M 333.8563 83.4914   A 1.14 0.82 114.0 0 0 335.0691 82.7835   A 1.14 0.82 114.0 0 0 334.7837 81.4086   A 1.14 0.82 114.0 0 0 333.5709 82.1165   A 1.14 0.82 114.0 0 0 333.8563 83.4914   Z"></path>
  <path fill="#323232" d="   M 79.03 74.47   A 0.51 0.51 0.0 0 0 78.38 73.83   L 74.03 75.32   A 1.14 1.14 0.0 0 1 72.57 74.61   L 71.54 71.62   A 0.86 0.86 0.0 0 1 72.15 70.51   Q 76.14 69.52 78.90 70.34   C 81.55 71.13 84.40 74.15 83.38 77.25   C 81.71 82.36 76.64 84.22 73.88 78.55   A 0.61 0.61 0.0 0 1 74.48 77.68   Q 77.86 77.96 79.03 74.47   Z"></path>
  <path fill="#323232" d="   M 69.60 96.15   A 0.44 0.44 0.0 0 0 69.31 96.97   Q 72.85 98.86 74.12 99.89   Q 75.42 100.93 75.56 101.82   A 1.06 1.06 0.0 0 1 74.06 102.94   L 66.04 99.11   A 2.84 2.83 15.7 0 1 64.44 96.27   L 64.87 91.98   A 0.99 0.98 -7.9 0 1 65.50 91.16   Q 69.13 89.74 71.42 85.60   A 0.57 0.57 0.0 0 0 70.93 84.75   Q 70.03 84.74 69.07 85.49   A 0.60 0.60 0.0 0 1 68.23 85.40   Q 66.71 83.55 66.44 81.55   A 0.61 0.59 84.2 0 1 66.99 80.86   C 71.54 80.58 80.09 84.62 74.84 90.39   A 0.72 0.72 0.0 0 0 74.78 91.27   L 75.91 92.95   A 1.26 1.24 30.4 0 1 76.11 93.69   C 75.89 97.44 72.22 96.70 69.60 96.15   Z   M 72.36 89.53   Q 73.09 89.97 73.30 89.84   A 0.76 0.63 44.6 0 0 73.18 88.68   Q 72.50 88.19 72.23 88.83   Q 72.01 89.32 72.36 89.53   Z   M 72.5925 93.2821   A 1.49 0.71 -8.8 0 0 71.0114 92.8084   A 1.49 0.71 -8.8 0 0 69.6475 93.7379   A 1.49 0.71 -8.8 0 0 71.2286 94.2116   A 1.49 0.71 -8.8 0 0 72.5925 93.2821   Z"></path>
  <path fill="#323232" d="   M 81.41 86.59   Q 82.09 86.99 82.06 87.87   A 1.06 1.05 -18.2 0 1 81.65 88.67   Q 81.01 89.17 80.65 89.79   Q 80.28 90.41 80.16 91.21   A 1.06 1.05 79.1 0 1 79.66 91.96   Q 78.91 92.41 78.22 92.01   Q 77.53 91.60 77.57 90.73   A 1.06 1.05 -18.2 0 1 77.98 89.92   Q 78.61 89.43 78.98 88.81   Q 79.34 88.19 79.47 87.39   A 1.06 1.05 79.1 0 1 79.97 86.64   Q 80.72 86.18 81.41 86.59   Z"></path>
  <path fill="#323232" d="   M 338.49 98.96   Q 338.51 98.86 337.61 96.65   A 1.39 1.39 0.0 0 1 337.77 95.30   C 339.45 93.02 345.22 90.94 347.06 94.01   C 347.95 95.50 346.89 97.44 345.77 98.47   Q 340.95 102.89 334.82 102.89   A 1.48 1.46 -14.6 0 1 333.54 102.15   L 330.25 96.46   A 0.79 0.79 0.0 0 1 331.36 95.40   L 337.58 99.36   A 0.60 0.60 0.0 0 0 338.49 98.96   Z   M 343.10 96.45   A 0.68 0.60 1.3 0 0 342.36 95.77   Q 342.28 95.77 342.16 96.00   C 341.95 96.42 342.52 96.92 342.85 96.68   Q 343.09 96.51 343.10 96.45   Z"></path>
  <path fill="#003690" d="   M 201.32 317.17   C 297.27 317.58 365.03 221.16 330.89 130.96   A 0.84 0.82 -27.6 0 1 331.20 129.99   L 368.39 105.04   A 0.60 0.60 0.0 0 1 369.28 105.30   C 395.48 164.75 388.37 233.82 350.25 286.51   C 315.55 334.48 260.46 362.44 201.13 362.19   C 141.80 361.94 86.95 333.51 52.66 285.25   C 14.98 232.24 8.46 163.11 35.16 103.89   A 0.60 0.60 0.0 0 1 36.05 103.63   L 73.03 128.90   A 0.84 0.82 28.1 0 1 73.33 129.87   C 38.43 219.78 105.37 316.76 201.32 317.17   Z"></path>
  <path fill="#0297f1" d="   M 89.84 229.97   A 0.37 0.37 0.0 0 1 90.17 229.45   C 106.30 228.97 122.66 224.26 137.80 217.50   C 161.30 207.02 182.79 192.75 203.22 176.96   C 220.03 163.98 233.98 152.66 249.46 144.47   C 260.63 138.57 273.21 135.54 285.12 139.76   A 1.02 1.02 0.0 0 1 285.80 140.68   C 286.29 152.16 287.70 164.68 294.11 173.87   C 300.64 183.24 312.85 187.33 324.00 189.65   A 0.45 0.44 8.6 0 1 324.36 190.13   Q 322.75 208.98 315.18 227.43   A 0.81 0.80 18.0 0 1 314.24 227.90   C 290.74 221.77 271.03 211.04 256.72 190.92   A 0.65 0.65 0.0 0 0 255.74 190.82   Q 234.35 211.23 210.59 227.29   Q 167.63 256.33 116.61 265.63   A 3.52 3.51 62.6 0 1 113.46 264.63   Q 98.81 249.77 89.84 229.97   Z"></path>
  <path fill="#0297f1" d="   M 124.57 274.81   A 0.40 0.40 0.0 0 1 124.87 274.29   C 173.88 264.88 217.72 239.02 254.46 205.70   A 0.89 0.89 0.0 0 1 255.73 205.77   C 269.80 221.65 289.09 231.78 309.65 237.17   A 0.58 0.57 -68.7 0 1 310.01 238.00   Q 300.68 255.10 286.38 268.67   A 2.97 2.97 0.0 0 1 283.50 269.37   C 272.56 266.18 261.91 260.72 252.21 254.69   A 1.06 1.05 -49.1 0 0 250.99 254.78   Q 242.69 261.68 232.21 269.43   C 214.24 282.74 193.38 290.61 171.60 297.09   Q 169.06 297.84 167.38 297.36   Q 144.95 290.90 125.23 275.50   Q 124.65 275.05 124.57 274.81   Z"></path>
  <path fill="#0297f1" d="   M 191.81 300.98   C 213.61 294.53 233.34 282.53 251.80 267.04   A 1.19 1.19 0.0 0 1 253.18 266.93   Q 263.51 273.09 275.19 277.36   A 0.37 0.37 0.0 0 1 275.28 278.01   Q 238.55 304.89 192.68 301.87   Q 192.45 301.86 191.77 301.55   A 0.30 0.30 0.0 0 1 191.81 300.98   Z"></path>
</svg>
