<?xml version="1.0" encoding="UTF-8" standalone="no"?>
<svg xmlns="http://www.w3.org/2000/svg" version="1.1" viewBox="0.00 0.00 225.00 225.00">
  <g stroke-width="2.00" fill="none" stroke-linecap="butt">
    <path stroke="#f58612" vector-effect="non-scaling-stroke" d="   M 163.78 146.90   L 155.68 69.12   A 0.24 0.24 0.0 0 0 155.21 69.06   L 139.88 110.55   A 0.28 0.27 51.1 0 1 139.35 110.49   L 137.22 96.02   A 0.71 0.71 0.0 0 0 136.52 95.41   L 129.83 95.41   A 1.19 1.18 -83.2 0 0 128.68 96.32   L 124.43 113.47   A 0.22 0.22 0.0 0 1 124.00 113.48   L 121.95 105.68   A 1.29 1.28 -4.2 0 0 120.83 104.72   Q 119.45 104.58 118.17 105.41   A 2.89 2.82 -61.6 0 1 116.69 105.87   L 112.26 105.98"></path>
    <path stroke="#7f7901" vector-effect="non-scaling-stroke" d="   M 112.26 105.98   L 105.87 97.57   A 1.37 1.36 48.8 0 0 103.82 97.43   L 101.00 100.26   A 2.91 2.89 -67.2 0 1 98.96 101.10   L 70.91 101.10   A 0.69 0.64 66.2 0 1 70.44 100.90   L 67.08 97.55   A 1.93 1.92 50.5 0 0 64.65 97.31   L 52.31 105.64"></path>
    <path stroke="#f58612" vector-effect="non-scaling-stroke" d="   M 52.31 105.64   Q 51.48 105.95 50.33 105.92"></path>
    <path stroke="#f58612" vector-effect="non-scaling-stroke" d="   M 156.11 157.43   L 149.91 110.04   A 0.17 0.17 0.0 0 0 149.58 110.00   L 141.79 133.60   A 1.38 1.38 0.0 0 1 140.48 134.55   L 134.33 134.55   A 0.34 0.33 86.0 0 1 134.00 134.26   L 131.03 114.06   A 0.16 0.16 0.0 0 0 130.71 114.04   L 126.98 129.08   A 0.71 0.70 6.7 0 1 126.29 129.62   L 122.13 129.62   A 0.77 0.76 84.5 0 1 121.38 129.00   L 118.02 110.91   A 0.73 0.72 84.7 0 0 117.31 110.31   L 106.02 110.27"></path>
    <path stroke="#760d11" vector-effect="non-scaling-stroke" d="   M 106.02 110.27   L 93.86 110.46   A 1.74 1.69 31.7 0 0 93.23 110.60   L 92.85 110.76"></path>
    <path stroke="#f58612" vector-effect="non-scaling-stroke" d="   M 92.85 110.76   Q 92.71 110.58 92.48 110.44   A 0.88 0.83 -28.2 0 0 92.04 110.32   L 70.63 110.37"></path>
    <path stroke="#760d11" vector-effect="non-scaling-stroke" d="   M 70.63 110.37   L 58.74 110.43"></path>
    <path stroke="#f58612" vector-effect="non-scaling-stroke" d="   M 58.74 110.43   L 49.83 110.44"></path>
    <path stroke="#760d11" vector-effect="non-scaling-stroke" d="   M 52.31 105.64   Q 52.77 106.09 53.75 106.08   Q 83.25 105.95 112.26 105.98"></path>
    <path stroke="#7f7901" vector-effect="non-scaling-stroke" d="   M 105.40 174.49   L 83.90 137.40   A 0.48 0.48 0.0 0 0 83.13 137.32   L 66.86 155.57"></path>
    <path stroke="#7f7901" vector-effect="non-scaling-stroke" d="   M 63.24 151.18   L 73.59 130.94   A 1.39 1.37 -50.3 0 0 73.46 129.47   L 58.74 110.43"></path>
    <path stroke="#7f7901" vector-effect="non-scaling-stroke" d="   M 70.63 110.37   L 80.91 123.47   A 0.39 0.39 0.0 0 0 81.51 123.49   L 92.85 110.76"></path>
    <path stroke="#7f7901" vector-effect="non-scaling-stroke" d="   M 113.76 174.98   L 91.55 129.44   A 0.81 0.80 -39.3 0 1 91.64 128.59   L 106.02 110.27"></path>
  </g>
  <path fill="#fef101" d="   M 163.78 146.90   L 155.68 69.12   A 0.24 0.24 0.0 0 0 155.21 69.06   L 139.88 110.55   A 0.28 0.27 51.1 0 1 139.35 110.49   L 137.22 96.02   A 0.71 0.71 0.0 0 0 136.52 95.41   L 129.83 95.41   A 1.19 1.18 -83.2 0 0 128.68 96.32   L 124.43 113.47   A 0.22 0.22 0.0 0 1 124.00 113.48   L 121.95 105.68   A 1.29 1.28 -4.2 0 0 120.83 104.72   Q 119.45 104.58 118.17 105.41   A 2.89 2.82 -61.6 0 1 116.69 105.87   L 112.26 105.98   L 105.87 97.57   A 1.37 1.36 48.8 0 0 103.82 97.43   L 101.00 100.26   A 2.91 2.89 -67.2 0 1 98.96 101.10   L 70.91 101.10   A 0.69 0.64 66.2 0 1 70.44 100.90   L 67.08 97.55   A 1.93 1.92 50.5 0 0 64.65 97.31   L 52.31 105.64   Q 51.48 105.95 50.33 105.92   C 53.74 70.38 86.29 46.02 121.00 50.53   C 166.13 56.40 189.97 108.07 165.12 146.40   A 1.01 0.99 -75.3 0 1 164.37 146.85   L 163.78 146.90   Z"></path>
  <path fill="#ec1a22" d="   M 163.78 146.90   Q 164.11 147.91 162.97 149.47   Q 159.94 153.67 156.11 157.43   L 149.91 110.04   A 0.17 0.17 0.0 0 0 149.58 110.00   L 141.79 133.60   A 1.38 1.38 0.0 0 1 140.48 134.55   L 134.33 134.55   A 0.34 0.33 86.0 0 1 134.00 134.26   L 131.03 114.06   A 0.16 0.16 0.0 0 0 130.71 114.04   L 126.98 129.08   A 0.71 0.70 6.7 0 1 126.29 129.62   L 122.13 129.62   A 0.77 0.76 84.5 0 1 121.38 129.00   L 118.02 110.91   A 0.73 0.72 84.7 0 0 117.31 110.31   L 106.02 110.27   L 93.86 110.46   A 1.74 1.69 31.7 0 0 93.23 110.60   L 92.85 110.76   Q 92.71 110.58 92.48 110.44   A 0.88 0.83 -28.2 0 0 92.04 110.32   L 70.63 110.37   L 58.74 110.43   L 49.83 110.44   L 50.33 105.92   Q 51.48 105.95 52.31 105.64   Q 52.77 106.09 53.75 106.08   Q 83.25 105.95 112.26 105.98   L 116.69 105.87   A 2.89 2.82 -61.6 0 0 118.17 105.41   Q 119.45 104.58 120.83 104.72   A 1.29 1.28 -4.2 0 1 121.95 105.68   L 124.00 113.48   A 0.22 0.22 0.0 0 0 124.43 113.47   L 128.68 96.32   A 1.19 1.18 -83.2 0 1 129.83 95.41   L 136.52 95.41   A 0.71 0.71 0.0 0 1 137.22 96.02   L 139.35 110.49   A 0.28 0.27 51.1 0 0 139.88 110.55   L 155.21 69.06   A 0.24 0.24 0.0 0 1 155.68 69.12   L 163.78 146.90   Z"></path>
  <path fill="#000000" d="   M 112.26 105.98   Q 83.25 105.95 53.75 106.08   Q 52.77 106.09 52.31 105.64   L 64.65 97.31   A 1.93 1.92 50.5 0 1 67.08 97.55   L 70.44 100.90   A 0.69 0.64 66.2 0 0 70.91 101.10   L 98.96 101.10   A 2.91 2.89 -67.2 0 0 101.00 100.26   L 103.82 97.43   A 1.37 1.36 48.8 0 1 105.87 97.57   L 112.26 105.98   Z"></path>
  <path fill="#fef101" d="   M 156.11 157.43   Q 141.60 171.53 120.03 174.83   Q 117.33 175.24 113.76 174.98   L 91.55 129.44   A 0.81 0.80 -39.3 0 1 91.64 128.59   L 106.02 110.27   L 117.31 110.31   A 0.73 0.72 84.7 0 1 118.02 110.91   L 121.38 129.00   A 0.77 0.76 84.5 0 0 122.13 129.62   L 126.29 129.62   A 0.71 0.70 6.7 0 0 126.98 129.08   L 130.71 114.04   A 0.16 0.16 0.0 0 1 131.03 114.06   L 134.00 134.26   A 0.34 0.33 86.0 0 0 134.33 134.55   L 140.48 134.55   A 1.38 1.38 0.0 0 0 141.79 133.60   L 149.58 110.00   A 0.17 0.17 0.0 0 1 149.91 110.04   L 156.11 157.43   Z"></path>
  <path fill="#000000" d="   M 106.02 110.27   L 91.64 128.59   A 0.81 0.80 -39.3 0 0 91.55 129.44   L 113.76 174.98   Q 108.75 175.41 105.40 174.49   L 83.90 137.40   A 0.48 0.48 0.0 0 0 83.13 137.32   L 66.86 155.57   L 63.24 151.18   L 73.59 130.94   A 1.39 1.37 -50.3 0 0 73.46 129.47   L 58.74 110.43   L 70.63 110.37   L 80.91 123.47   A 0.39 0.39 0.0 0 0 81.51 123.49   L 92.85 110.76   L 93.23 110.60   A 1.74 1.69 31.7 0 1 93.86 110.46   L 106.02 110.27   Z"></path>
  <path fill="#fef101" d="   M 58.74 110.43   L 73.46 129.47   A 1.39 1.37 -50.3 0 1 73.59 130.94   L 63.24 151.18   Q 49.39 133.29 49.83 110.44   L 58.74 110.43   Z"></path>
  <path fill="#fef101" d="   M 92.85 110.76   L 81.51 123.49   A 0.39 0.39 0.0 0 1 80.91 123.47   L 70.63 110.37   L 92.04 110.32   A 0.88 0.83 -28.2 0 1 92.48 110.44   Q 92.71 110.58 92.85 110.76   Z"></path>
  <path fill="#fef101" d="   M 105.40 174.49   Q 96.31 173.82 88.22 170.27   Q 76.00 164.92 66.86 155.57   L 83.13 137.32   A 0.48 0.48 0.0 0 1 83.90 137.40   L 105.40 174.49   Z"></path>
</svg>
