<?xml version="1.0" encoding="UTF-8" standalone="no"?>
<svg xmlns="http://www.w3.org/2000/svg" version="1.1" viewBox="0.00 0.00 450.00 405.00">
  <g stroke-width="2.00" fill="none" stroke-linecap="butt">
    <path stroke="#7d6a16" vector-effect="non-scaling-stroke" d="   M 347.43 112.65   A 9.69 9.69 0.0 0 0 337.74 102.96   L 112.26 102.96   A 9.69 9.69 0.0 0 0 102.57 112.65   L 102.57 338.13   A 9.69 9.69 0.0 0 0 112.26 347.82   L 337.74 347.82   A 9.69 9.69 0.0 0 0 347.43 338.13   L 347.43 112.65"></path>
    <path stroke="#7d6a16" vector-effect="non-scaling-stroke" d="   M 171.73 135.75   L 280.04 135.75   A 0.79 0.78 -5.9 0 1 280.81 136.37   L 315.44 297.33   A 2.32 2.24 44.0 0 1 315.47 298.15   Q 314.99 301.55 312.70 303.37   Q 311.25 304.52 306.53 304.52   Q 227.32 304.45 223.71 304.54   C 217.58 304.68 213.73 302.57 212.51 296.63   A 0.20 0.17 40.3 0 1 212.50 296.57   L 212.50 287.28   A 3.61 3.44 38.9 0 0 212.38 286.37   C 210.56 280.15 206.27 279.19 199.85 279.20   Q 181.98 279.25 134.47 279.23   A 1.89 1.89 0.0 0 1 132.59 277.54   Q 132.19 273.80 133.71 270.45   Q 159.66 213.22 179.40 169.51   A 0.90 0.89 -77.5 0 1 180.21 168.99   L 260.01 168.99   A 0.50 0.49 -0.0 0 0 260.51 168.50   L 260.51 145.57   A 0.34 0.34 0.0 0 0 260.17 145.23   L 167.48 145.23   A 0.58 0.56 -78.0 0 0 166.96 145.58   L 111.02 275.70   A 3.20 3.13 57.3 0 0 110.76 276.96   L 110.76 331.88   A 4.10 4.00 -53.0 0 0 110.89 332.90   Q 111.97 336.97 115.51 339.27   Q 117.72 340.70 123.81 340.51   Q 125.60 340.46 332.33 340.49   A 2.78 2.68 -51.8 0 0 333.06 340.39   Q 340.92 338.25 341.00 329.98   Q 341.05 323.94 340.97 318.40   A 9.12 8.97 -52.1 0 0 340.78 316.76   L 296.73 110.66   A 0.54 0.53 84.0 0 0 296.21 110.23   L 182.78 110.23   A 0.86 0.85 11.4 0 0 181.99 110.75   L 171.44 135.30   A 0.32 0.32 0.0 0 0 171.73 135.75"></path>
    <path stroke="#7d6a16" vector-effect="non-scaling-stroke" d="   M 227.91 292.41   Q 244.02 292.56 283.86 292.47   Q 291.15 292.46 291.62 292.34   C 296.70 291.09 300.25 285.39 299.12 280.26   Q 297.15 271.25 289.37 237.32   C 288.15 232.02 286.57 229.57 282.37 226.95   Q 280.23 225.61 272.93 225.72   Q 265.89 225.82 231.12 225.73   Q 226.73 225.72 225.04 226.65   C 219.72 229.59 219.46 233.36 219.47 240.18   Q 219.49 279.02 219.53 282.00   Q 219.61 290.04 226.88 292.25   A 3.94 3.72 -34.5 0 0 227.91 292.41"></path>
  </g>
  <path fill="#000000" d="   M 363.00 352.63   A 11.37 11.37 0.0 0 1 351.63 364.00   L 98.37 364.00   A 11.37 11.37 0.0 0 1 87.00 352.63   L 87.00 97.37   A 11.37 11.37 0.0 0 1 98.37 86.00   L 351.63 86.00   A 11.37 11.37 0.0 0 1 363.00 97.37   L 363.00 352.63   Z   M 347.43 112.65   A 9.69 9.69 0.0 0 0 337.74 102.96   L 112.26 102.96   A 9.69 9.69 0.0 0 0 102.57 112.65   L 102.57 338.13   A 9.69 9.69 0.0 0 0 112.26 347.82   L 337.74 347.82   A 9.69 9.69 0.0 0 0 347.43 338.13   L 347.43 112.65   Z"></path>
  <path fill="#f9d42b" d="   M 347.43 338.13   A 9.69 9.69 0.0 0 1 337.74 347.82   L 112.26 347.82   A 9.69 9.69 0.0 0 1 102.57 338.13   L 102.57 112.65   A 9.69 9.69 0.0 0 1 112.26 102.96   L 337.74 102.96   A 9.69 9.69 0.0 0 1 347.43 112.65   L 347.43 338.13   Z   M 171.73 135.75   L 280.04 135.75   A 0.79 0.78 -5.9 0 1 280.81 136.37   L 315.44 297.33   A 2.32 2.24 44.0 0 1 315.47 298.15   Q 314.99 301.55 312.70 303.37   Q 311.25 304.52 306.53 304.52   Q 227.32 304.45 223.71 304.54   C 217.58 304.68 213.73 302.57 212.51 296.63   A 0.20 0.17 40.3 0 1 212.50 296.57   L 212.50 287.28   A 3.61 3.44 38.9 0 0 212.38 286.37   C 210.56 280.15 206.27 279.19 199.85 279.20   Q 181.98 279.25 134.47 279.23   A 1.89 1.89 0.0 0 1 132.59 277.54   Q 132.19 273.80 133.71 270.45   Q 159.66 213.22 179.40 169.51   A 0.90 0.89 -77.5 0 1 180.21 168.99   L 260.01 168.99   A 0.50 0.49 -0.0 0 0 260.51 168.50   L 260.51 145.57   A 0.34 0.34 0.0 0 0 260.17 145.23   L 167.48 145.23   A 0.58 0.56 -78.0 0 0 166.96 145.58   L 111.02 275.70   A 3.20 3.13 57.3 0 0 110.76 276.96   L 110.76 331.88   A 4.10 4.00 -53.0 0 0 110.89 332.90   Q 111.97 336.97 115.51 339.27   Q 117.72 340.70 123.81 340.51   Q 125.60 340.46 332.33 340.49   A 2.78 2.68 -51.8 0 0 333.06 340.39   Q 340.92 338.25 341.00 329.98   Q 341.05 323.94 340.97 318.40   A 9.12 8.97 -52.1 0 0 340.78 316.76   L 296.73 110.66   A 0.54 0.53 84.0 0 0 296.21 110.23   L 182.78 110.23   A 0.86 0.85 11.4 0 0 181.99 110.75   L 171.44 135.30   A 0.32 0.32 0.0 0 0 171.73 135.75   Z   M 227.91 292.41   Q 244.02 292.56 283.86 292.47   Q 291.15 292.46 291.62 292.34   C 296.70 291.09 300.25 285.39 299.12 280.26   Q 297.15 271.25 289.37 237.32   C 288.15 232.02 286.57 229.57 282.37 226.95   Q 280.23 225.61 272.93 225.72   Q 265.89 225.82 231.12 225.73   Q 226.73 225.72 225.04 226.65   C 219.72 229.59 219.46 233.36 219.47 240.18   Q 219.49 279.02 219.53 282.00   Q 219.61 290.04 226.88 292.25   A 3.94 3.72 -34.5 0 0 227.91 292.41   Z"></path>
  <path fill="#000000" d="   M 171.73 135.75   A 0.32 0.32 0.0 0 1 171.44 135.30   L 181.99 110.75   A 0.86 0.85 11.4 0 1 182.78 110.23   L 296.21 110.23   A 0.54 0.53 84.0 0 1 296.73 110.66   L 340.78 316.76   A 9.12 8.97 -52.1 0 1 340.97 318.40   Q 341.05 323.94 341.00 329.98   Q 340.92 338.25 333.06 340.39   A 2.78 2.68 -51.8 0 1 332.33 340.49   Q 125.60 340.46 123.81 340.51   Q 117.72 340.70 115.51 339.27   Q 111.97 336.97 110.89 332.90   A 4.10 4.00 -53.0 0 1 110.76 331.88   L 110.76 276.96   A 3.20 3.13 57.3 0 1 111.02 275.70   L 166.96 145.58   A 0.58 0.56 -78.0 0 1 167.48 145.23   L 260.17 145.23   A 0.34 0.34 0.0 0 1 260.51 145.57   L 260.51 168.50   A 0.50 0.49 -0.0 0 1 260.01 168.99   L 180.21 168.99   A 0.90 0.89 -77.5 0 0 179.40 169.51   Q 159.66 213.22 133.71 270.45   Q 132.19 273.80 132.59 277.54   A 1.89 1.89 0.0 0 0 134.47 279.23   Q 181.98 279.25 199.85 279.20   C 206.27 279.19 210.56 280.15 212.38 286.37   A 3.61 3.44 38.9 0 1 212.50 287.28   L 212.50 296.57   A 0.20 0.17 40.3 0 0 212.51 296.63   C 213.73 302.57 217.58 304.68 223.71 304.54   Q 227.32 304.45 306.53 304.52   Q 311.25 304.52 312.70 303.37   Q 314.99 301.55 315.47 298.15   A 2.32 2.24 44.0 0 0 315.44 297.33   L 280.81 136.37   A 0.79 0.78 -5.9 0 0 280.04 135.75   L 171.73 135.75   Z"></path>
  <path fill="#000000" d="   M 226.88 292.25   Q 219.61 290.04 219.53 282.00   Q 219.49 279.02 219.47 240.18   C 219.46 233.36 219.72 229.59 225.04 226.65   Q 226.73 225.72 231.12 225.73   Q 265.89 225.82 272.93 225.72   Q 280.23 225.61 282.37 226.95   C 286.57 229.57 288.15 232.02 289.37 237.32   Q 297.15 271.25 299.12 280.26   C 300.25 285.39 296.70 291.09 291.62 292.34   Q 291.15 292.46 283.86 292.47   Q 244.02 292.56 227.91 292.41   A 3.94 3.72 -34.5 0 1 226.88 292.25   Z"></path>
</svg>
