<?xml version="1.0" encoding="UTF-8" standalone="no"?>
<!DOCTYPE svg PUBLIC "-//W3C//DTD SVG 1.1//EN" "http://www.w3.org/Graphics/SVG/1.1/DTD/svg11.dtd">
<svg xmlns="http://www.w3.org/2000/svg" version="1.1" viewBox="0.00 0.00 750.00 750.00">
<g stroke-width="2.00" fill="none" stroke-linecap="butt">
<path stroke="#d1677f" vector-effect="non-scaling-stroke" d="
  M 463.68 307.00
  Q 466.54 303.35 469.82 299.85
  Q 487.79 280.63 491.32 254.55
  Q 493.20 240.70 492.60 230.53
  Q 491.65 214.09 483.98 196.04
  Q 478.30 182.65 469.31 170.17
  Q 462.40 160.58 459.41 157.04
  Q 446.57 141.80 433.20 126.32
  C 422.15 113.51 412.19 99.59 404.71 84.52
  Q 398.96 72.95 397.15 62.97
  Q 396.78 60.95 396.46 58.84
  C 395.24 50.87 390.56 51.21 386.73 57.21
  Q 381.82 64.93 378.64 73.61
  Q 371.94 91.92 368.73 111.44
  Q 368.50 112.84 368.45 114.23
  Q 368.39 115.76 368.10 117.17
  Q 367.68 119.17 367.59 121.36
  Q 367.04 135.32 367.86 146.95
  Q 368.19 151.62 368.85 156.97
  Q 372.10 183.37 381.16 204.95
  Q 382.50 208.14 380.07 205.68
  C 378.96 204.56 377.53 203.88 376.43 202.94
  Q 359.95 188.81 355.01 167.29
  Q 352.24 155.20 352.18 141.00
  Q 352.11 127.18 353.29 115.88
  Q 353.73 111.61 354.84 106.89
  Q 355.95 102.19 356.65 97.76
  C 356.90 96.17 356.15 94.44 354.35 94.32
  Q 349.85 94.00 346.66 97.09
  Q 328.65 114.58 317.05 138.84
  Q 308.30 157.13 307.65 177.44
  Q 307.12 193.82 311.98 212.81
  Q 314.52 222.72 317.50 232.21
  Q 317.94 233.60 316.90 232.58
  Q 300.97 217.08 296.61 195.70
  C 295.22 188.86 295.30 181.81 294.62 174.81
  C 294.45 173.08 293.95 171.28 293.16 169.73
  C 291.89 167.21 289.05 166.36 286.59 167.69
  C 281.02 170.70 277.90 177.74 275.19 183.14
  Q 267.80 197.82 262.88 213.63
  Q 259.06 225.93 257.63 237.44
  Q 257.26 240.39 256.97 243.42
  Q 255.99 253.62 257.58 264.98
  Q 260.34 284.69 273.43 299.82
  Q 276.52 303.39 280.40 306.16
  A 0.36 0.35 -76.7 0 1 280.55 306.41
  Q 280.57 306.54 280.53 306.68"
/>
<path stroke="#7271b6" vector-effect="non-scaling-stroke" d="
  M 446.04 360.99
  Q 445.77 360.42 444.63 360.65
  Q 444.57 360.66 444.59 360.72
  Q 444.60 360.73 444.62 360.63
  Q 444.63 360.57 444.69 360.57
  Q 459.06 360.71 473.51 360.71
  Q 478.81 360.71 481.89 359.16
  C 490.91 354.65 490.47 345.03 490.03 336.43
  Q 489.55 327.24 481.29 323.10
  Q 479.17 322.04 476.57 322.04
  Q 373.93 322.03 275.61 321.90
  Q 269.94 321.90 267.45 323.19
  Q 259.59 327.25 259.03 335.93
  Q 258.80 339.44 258.77 343.44
  Q 258.74 347.75 259.83 350.87
  Q 262.85 359.47 273.36 360.97"
/>
<path stroke="#7271b6" vector-effect="non-scaling-stroke" d="
  M 317.34 418.60
  C 320.71 421.20 323.72 424.01 327.22 427.09
  Q 335.82 434.66 343.43 443.88
  Q 355.10 458.02 362.11 477.89
  Q 364.16 483.72 365.62 489.15
  Q 368.53 499.95 370.94 509.72
  Q 371.75 512.99 374.70 513.46
  Q 375.21 513.54 375.64 513.28
  Q 377.40 512.22 377.89 510.32
  Q 380.84 498.89 383.67 487.86
  C 384.50 484.64 385.67 481.43 386.74 478.27
  Q 395.30 452.89 414.37 434.11
  C 421.96 426.64 429.94 419.31 438.47 413.34
  C 444.33 409.24 449.14 403.79 451.61 397.12
  C 454.28 389.93 451.73 382.44 444.71 379.03
  Q 440.35 376.92 436.33 376.93
  Q 377.79 377.09 314.78 376.89
  Q 310.72 376.88 307.94 377.61
  C 299.71 379.80 294.84 386.76 296.91 395.51
  C 298.73 403.22 305.53 410.13 312.06 414.48
  C 313.95 415.73 315.56 417.22 317.34 418.60"
/>
<path stroke="#7271b6" vector-effect="non-scaling-stroke" d="
  M 678.96 536.05
  Q 661.96 537.94 648.20 547.30
  C 630.99 559.01 620.64 580.41 627.58 600.96
  Q 630.24 608.84 634.29 614.58
  C 642.65 626.43 659.19 630.29 672.88 627.83
  C 678.20 626.88 682.90 624.40 686.87 620.65
  Q 688.81 618.82 691.72 618.25
  Q 692.31 618.14 692.85 618.39
  C 697.36 620.50 693.47 627.40 691.39 630.03
  C 682.49 641.30 669.04 645.07 655.18 643.24
  Q 641.28 641.40 630.24 633.47
  Q 615.89 623.16 611.59 605.94
  Q 603.67 574.26 621.33 549.11
  Q 629.90 536.90 643.34 532.21
  C 646.74 531.02 650.16 531.11 653.60 530.51
  Q 657.04 529.91 656.65 526.66
  Q 655.78 519.40 653.00 507.09
  C 646.89 480.03 634.18 452.77 614.99 432.72
  Q 586.29 402.76 545.71 396.01
  Q 537.84 394.70 529.48 394.52
  Q 519.37 394.30 513.44 394.99
  Q 462.92 400.89 429.02 436.20
  Q 402.23 464.12 391.53 504.73
  Q 390.84 507.33 390.40 509.89
  C 388.98 518.10 385.72 527.65 377.76 531.18
  C 371.87 533.81 365.81 528.44 363.12 523.43
  Q 360.19 517.97 358.92 511.31
  Q 358.34 508.25 357.63 505.46
  Q 350.06 475.59 333.70 452.55
  Q 309.69 418.75 270.17 403.13
  Q 260.60 399.35 251.04 397.36
  Q 231.31 393.26 212.49 394.96
  Q 170.77 398.74 139.69 427.36
  C 112.41 452.48 97.12 490.19 92.41 526.50
  Q 91.90 530.42 96.10 530.63
  Q 107.02 531.19 115.26 536.94
  C 124.50 543.40 131.35 552.62 135.35 563.21
  Q 144.70 587.94 134.97 613.36
  Q 132.18 620.64 126.80 626.37
  Q 112.24 641.89 90.78 643.58
  Q 83.54 644.15 76.11 642.16
  Q 62.96 638.63 56.02 627.40
  C 54.74 625.34 54.09 623.12 54.23 620.73
  A 2.50 2.49 -88.5 0 1 56.71 618.37
  Q 59.56 618.36 61.79 620.44
  C 66.66 624.98 72.08 627.53 78.74 628.25
  Q 94.32 629.92 107.32 621.88
  C 115.56 616.78 120.65 605.23 122.70 595.85
  Q 124.79 586.29 121.95 576.09
  C 116.12 555.17 97.55 541.38 76.49 537.03
  Q 72.46 536.19 68.28 535.93"
/>
<path stroke="#7271b6" vector-effect="non-scaling-stroke" d="
  M 685.30 535.92
  Q 694.81 536.57 700.24 537.77
  Q 723.19 542.85 735.30 563.01
  Q 747.58 583.47 748.52 607.14
  C 749.45 630.77 741.60 654.65 724.83 671.27
  C 708.72 687.24 685.65 695.02 663.25 695.30
  Q 653.04 695.43 644.02 693.44
  C 620.45 688.22 602.15 672.55 589.60 652.12
  Q 586.56 647.19 583.79 642.15
  Q 583.42 641.48 582.76 641.84
  Q 572.43 647.49 560.63 648.75
  Q 551.01 649.77 541.52 650.35
  Q 523.21 651.48 506.62 657.83
  Q 496.46 661.72 493.27 670.01
  Q 491.78 673.90 491.84 678.70
  Q 491.91 683.68 493.18 687.96
  Q 494.08 690.99 494.95 694.23
  Q 495.29 695.50 494.69 696.60
  A 1.22 1.21 -66.4 0 1 493.23 697.18
  Q 489.34 695.85 486.50 692.72
  C 477.68 683.01 468.62 669.75 466.94 657.03
  C 465.55 646.50 468.97 636.51 476.21 628.63
  C 478.69 625.93 480.43 621.54 478.54 618.10
  Q 474.09 610.00 472.90 600.81
  C 470.94 585.72 475.36 569.55 485.42 557.84
  C 498.03 543.17 517.49 537.97 536.50 540.21
  Q 540.44 540.68 544.21 542.33
  A 1.44 1.43 39.8 0 1 544.44 544.84
  C 542.72 545.99 540.77 546.74 538.81 547.28
  Q 525.76 550.87 522.69 562.27
  Q 520.38 570.85 524.04 578.95
  C 527.49 586.58 534.16 591.18 542.51 592.89
  C 554.69 595.39 565.68 593.49 574.92 585.33
  Q 579.62 581.18 581.11 579.32
  Q 589.51 568.91 594.29 557.74
  Q 599.84 544.80 599.68 530.36"
/>
<path stroke="#7271b6" vector-effect="non-scaling-stroke" d="
  M 599.72 526.24
  Q 600.09 517.97 597.87 509.25
  C 590.65 480.84 568.87 458.60 540.82 450.84
  C 522.60 445.80 502.47 447.73 485.62 455.43
  C 463.90 465.36 447.16 484.07 440.60 507.32
  Q 437.37 518.79 438.05 531.75
  Q 438.47 539.69 439.86 545.97
  C 441.19 552.00 434.88 554.13 430.47 555.47
  Q 429.80 555.67 430.22 556.24
  Q 431.62 558.13 433.41 559.87
  C 440.81 567.06 446.65 574.70 449.45 584.66
  Q 452.97 597.16 452.42 613.32
  C 451.50 639.97 434.47 665.51 411.72 678.84
  C 389.54 691.84 363.51 692.53 340.41 681.11
  Q 328.85 675.40 319.97 665.97
  Q 304.34 649.38 298.49 626.47
  Q 297.06 620.88 296.71 615.22
  Q 295.73 599.53 299.19 586.20
  Q 302.11 574.94 309.75 566.22
  Q 313.88 561.51 318.82 556.58
  A 0.71 0.71 0.0 0 0 318.51 555.40
  C 314.90 554.35 307.91 551.91 308.97 546.87
  Q 316.81 509.71 295.39 481.25
  Q 276.81 456.56 246.41 449.90
  Q 236.38 447.70 226.23 448.11
  C 197.15 449.29 172.53 465.24 158.39 490.47
  Q 149.72 505.95 148.98 524.92
  Q 148.96 525.28 149.07 525.62
  Q 149.37 526.60 149.66 526.23"
/>
<path stroke="#7271b6" vector-effect="non-scaling-stroke" d="
  M 149.24 528.43
  Q 148.93 543.43 154.54 556.99
  Q 160.19 570.65 170.67 581.85
  Q 186.46 598.73 208.92 592.24
  Q 220.38 588.93 224.87 579.02
  Q 229.16 569.57 225.57 560.16
  Q 221.89 550.53 209.83 547.29
  Q 206.54 546.41 204.00 544.49
  A 0.88 0.86 32.0 0 1 203.74 543.41
  C 204.95 541.00 213.18 539.90 215.84 539.78
  Q 225.12 539.37 232.57 540.69
  C 254.21 544.52 269.54 558.51 274.80 579.67
  Q 276.13 585.03 276.45 590.15
  C 276.99 598.82 275.53 608.93 271.17 616.68
  Q 267.65 622.93 272.72 628.32
  Q 274.09 629.77 275.23 631.37
  Q 284.02 643.57 282.10 656.76
  C 280.10 670.53 271.06 683.68 261.69 693.55
  Q 259.44 695.92 256.00 697.14
  C 255.27 697.40 254.65 697.09 254.03 696.74"
/>
<path stroke="#7271b6" vector-effect="non-scaling-stroke" d="
  M 254.03 696.74
  C 253.69 693.98 254.93 690.95 256.22 687.00
  Q 256.98 684.67 257.13 679.73
  C 257.41 670.29 253.84 663.06 244.73 658.98
  Q 228.85 651.85 207.59 650.34
  Q 198.96 649.73 190.76 649.06
  Q 177.37 647.97 165.71 641.55
  Q 165.49 641.42 165.37 641.65
  C 156.18 659.64 143.27 675.74 125.76 685.59
  C 101.34 699.32 69.47 697.84 44.38 685.55
  Q 32.46 679.70 24.04 671.02
  Q 4.47 650.84 0.95 622.25
  Q -3.06 589.61 15.13 561.03
  Q 24.13 546.89 39.61 540.71
  Q 49.83 536.62 61.24 536.38
  Q 62.37 536.36 61.29 536.02
  Q 61.23 536.00 60.77 535.96"
/>
<path stroke="#7271b6" vector-effect="non-scaling-stroke" d="
  M 402.10 611.22
  A 27.58 27.58 0.0 0 0 374.52 583.64
  A 27.58 27.58 0.0 0 0 346.94 611.22
  A 27.58 27.58 0.0 0 0 374.52 638.80
  A 27.58 27.58 0.0 0 0 402.10 611.22"
/>
</g>
<path fill="#b5b1da" d="
  M 463.68 307.00
  Q 466.54 303.35 469.82 299.85
  Q 487.79 280.63 491.32 254.55
  Q 493.20 240.70 492.60 230.53
  Q 491.65 214.09 483.98 196.04
  Q 478.30 182.65 469.31 170.17
  Q 462.40 160.58 459.41 157.04
  Q 446.57 141.80 433.20 126.32
  C 422.15 113.51 412.19 99.59 404.71 84.52
  Q 398.96 72.95 397.15 62.97
  Q 396.78 60.95 396.46 58.84
  C 395.24 50.87 390.56 51.21 386.73 57.21
  Q 381.82 64.93 378.64 73.61
  Q 371.94 91.92 368.73 111.44
  Q 368.50 112.84 368.45 114.23
  Q 368.39 115.76 368.10 117.17
  Q 367.68 119.17 367.59 121.36
  Q 367.04 135.32 367.86 146.95
  Q 368.19 151.62 368.85 156.97
  Q 372.10 183.37 381.16 204.95
  Q 382.50 208.14 380.07 205.68
  C 378.96 204.56 377.53 203.88 376.43 202.94
  Q 359.95 188.81 355.01 167.29
  Q 352.24 155.20 352.18 141.00
  Q 352.11 127.18 353.29 115.88
  Q 353.73 111.61 354.84 106.89
  Q 355.95 102.19 356.65 97.76
  C 356.90 96.17 356.15 94.44 354.35 94.32
  Q 349.85 94.00 346.66 97.09
  Q 328.65 114.58 317.05 138.84
  Q 308.30 157.13 307.65 177.44
  Q 307.12 193.82 311.98 212.81
  Q 314.52 222.72 317.50 232.21
  Q 317.94 233.60 316.90 232.58
  Q 300.97 217.08 296.61 195.70
  C 295.22 188.86 295.30 181.81 294.62 174.81
  C 294.45 173.08 293.95 171.28 293.16 169.73
  C 291.89 167.21 289.05 166.36 286.59 167.69
  C 281.02 170.70 277.90 177.74 275.19 183.14
  Q 267.80 197.82 262.88 213.63
  Q 259.06 225.93 257.63 237.44
  Q 257.26 240.39 256.97 243.42
  Q 255.99 253.62 257.58 264.98
  Q 260.34 284.69 273.43 299.82
  Q 276.52 303.39 280.40 306.16
  A 0.36 0.35 -76.7 0 1 280.55 306.41
  Q 280.57 306.54 280.53 306.68
  C 277.83 306.11 275.48 303.18 273.18 300.57
  C 254.91 279.91 253.02 252.44 258.82 226.48
  Q 264.80 199.76 278.74 174.83
  C 280.73 171.27 284.11 167.20 288.18 166.50
  C 292.00 165.83 294.64 169.96 295.11 173.23
  Q 295.74 177.61 295.77 181.58
  C 295.92 198.97 302.36 215.55 313.64 228.13
  Q 317.35 232.25 315.23 227.13
  C 314.80 226.10 314.65 224.59 314.27 223.42
  C 307.70 203.00 304.66 180.46 309.08 159.96
  Q 312.25 145.27 320.09 131.06
  Q 328.67 115.51 341.02 101.45
  C 344.97 96.96 348.79 92.37 355.70 94.33
  Q 356.26 94.49 356.51 95.02
  Q 357.40 96.90 357.00 99.15
  C 355.86 105.59 354.25 112.13 353.71 118.56
  Q 352.64 131.32 353.09 146.87
  C 353.57 163.47 358.04 181.09 368.53 193.86
  Q 371.07 196.97 377.19 202.67
  Q 377.63 203.08 378.04 203.68
  Q 378.41 204.23 379.00 204.15
  A 0.80 0.80 0.0 0 0 379.64 203.08
  Q 368.76 174.59 367.15 145.58
  Q 366.49 133.78 367.17 121.37
  Q 367.69 111.82 369.76 102.12
  Q 373.85 82.91 380.94 66.14
  C 382.25 63.03 389.05 48.66 393.98 52.56
  Q 396.49 54.55 396.94 57.53
  C 398.06 64.94 399.84 72.32 403.06 79.23
  C 411.05 96.39 421.40 111.25 433.45 125.40
  Q 445.26 139.28 456.99 152.98
  Q 471.11 169.45 480.55 187.08
  Q 490.22 205.15 492.44 222.86
  Q 494.14 236.53 492.27 252.55
  C 490.23 269.92 484.23 284.25 472.69 297.71
  Q 467.36 303.93 463.68 307.00
  Z"
/>
<path fill="#ed1c24" d="
  M 463.68 307.00
  L 280.53 306.68
  Q 280.57 306.54 280.55 306.41
  A 0.36 0.35 -76.7 0 0 280.40 306.16
  Q 276.52 303.39 273.43 299.82
  Q 260.34 284.69 257.58 264.98
  Q 255.99 253.62 256.97 243.42
  Q 257.26 240.39 257.63 237.44
  Q 259.06 225.93 262.88 213.63
  Q 267.80 197.82 275.19 183.14
  C 277.90 177.74 281.02 170.70 286.59 167.69
  C 289.05 166.36 291.89 167.21 293.16 169.73
  C 293.95 171.28 294.45 173.08 294.62 174.81
  C 295.30 181.81 295.22 188.86 296.61 195.70
  Q 300.97 217.08 316.90 232.58
  Q 317.94 233.60 317.50 232.21
  Q 314.52 222.72 311.98 212.81
  Q 307.12 193.82 307.65 177.44
  Q 308.30 157.13 317.05 138.84
  Q 328.65 114.58 346.66 97.09
  Q 349.85 94.00 354.35 94.32
  C 356.15 94.44 356.90 96.17 356.65 97.76
  Q 355.95 102.19 354.84 106.89
  Q 353.73 111.61 353.29 115.88
  Q 352.11 127.18 352.18 141.00
  Q 352.24 155.20 355.01 167.29
  Q 359.95 188.81 376.43 202.94
  C 377.53 203.88 378.96 204.56 380.07 205.68
  Q 382.50 208.14 381.16 204.95
  Q 372.10 183.37 368.85 156.97
  Q 368.19 151.62 367.86 146.95
  Q 367.04 135.32 367.59 121.36
  Q 367.68 119.17 368.10 117.17
  Q 368.39 115.76 368.45 114.23
  Q 368.50 112.84 368.73 111.44
  Q 371.94 91.92 378.64 73.61
  Q 381.82 64.93 386.73 57.21
  C 390.56 51.21 395.24 50.87 396.46 58.84
  Q 396.78 60.95 397.15 62.97
  Q 398.96 72.95 404.71 84.52
  C 412.19 99.59 422.15 113.51 433.20 126.32
  Q 446.57 141.80 459.41 157.04
  Q 462.40 160.58 469.31 170.17
  Q 478.30 182.65 483.98 196.04
  Q 491.65 214.09 492.60 230.53
  Q 493.20 240.70 491.32 254.55
  Q 487.79 280.63 469.82 299.85
  Q 466.54 303.35 463.68 307.00
  Z"
/>
<path fill="#b5b1da" d="
  M 446.04 360.99
  Q 445.77 360.42 444.63 360.65
  Q 444.57 360.66 444.59 360.72
  Q 444.60 360.73 444.62 360.63
  Q 444.63 360.57 444.69 360.57
  Q 459.06 360.71 473.51 360.71
  Q 478.81 360.71 481.89 359.16
  C 490.91 354.65 490.47 345.03 490.03 336.43
  Q 489.55 327.24 481.29 323.10
  Q 479.17 322.04 476.57 322.04
  Q 373.93 322.03 275.61 321.90
  Q 269.94 321.90 267.45 323.19
  Q 259.59 327.25 259.03 335.93
  Q 258.80 339.44 258.77 343.44
  Q 258.74 347.75 259.83 350.87
  Q 262.85 359.47 273.36 360.97
  Q 269.78 361.10 268.72 360.78
  C 263.43 359.16 259.50 354.06 258.56 348.45
  C 256.41 335.68 258.90 321.02 274.92 321.02
  Q 373.40 320.98 472.88 321.01
  C 476.21 321.02 480.31 321.43 483.17 323.14
  C 491.79 328.28 492.35 341.54 490.16 350.02
  Q 488.69 355.70 483.23 359.41
  C 481.34 360.69 479.38 360.98 477.12 360.97
  Q 461.58 360.96 446.04 360.99
  Z"
/>
<path fill="#2e3192" d="
  M 446.04 360.99
  L 273.36 360.97
  Q 262.85 359.47 259.83 350.87
  Q 258.74 347.75 258.77 343.44
  Q 258.80 339.44 259.03 335.93
  Q 259.59 327.25 267.45 323.19
  Q 269.94 321.90 275.61 321.90
  Q 373.93 322.03 476.57 322.04
  Q 479.17 322.04 481.29 323.10
  Q 489.55 327.24 490.03 336.43
  C 490.47 345.03 490.91 354.65 481.89 359.16
  Q 478.81 360.71 473.51 360.71
  Q 459.06 360.71 444.69 360.57
  Q 444.63 360.57 444.62 360.63
  Q 444.60 360.73 444.59 360.72
  Q 444.57 360.66 444.63 360.65
  Q 445.77 360.42 446.04 360.99
  Z"
/>
<path fill="#b5b1da" d="
  M 389.10 473.84
  Q 387.30 478.37 386.09 482.39
  Q 382.67 493.68 379.67 506.21
  Q 379.05 508.77 378.00 511.71
  C 377.23 513.88 375.39 514.58 373.31 514.09
  C 370.98 513.54 370.36 509.76 369.79 507.68
  Q 366.97 497.31 364.39 487.23
  C 362.36 479.29 358.73 470.06 354.67 462.25
  C 344.61 442.87 328.26 427.60 310.16 413.92
  C 303.48 408.87 296.45 401.63 295.82 393.14
  Q 294.98 381.86 306.23 377.43
  Q 309.87 375.99 315.70 375.99
  Q 370.77 376.02 429.04 376.01
  C 434.91 376.01 440.66 375.72 445.85 378.89
  C 449.45 381.09 452.87 384.47 453.16 388.96
  Q 453.68 397.27 450.19 402.35
  Q 445.61 409.02 437.19 415.25
  Q 426.73 423.00 416.40 433.06
  Q 398.26 450.73 389.10 473.84
  Z
  M 317.34 418.60
  C 320.71 421.20 323.72 424.01 327.22 427.09
  Q 335.82 434.66 343.43 443.88
  Q 355.10 458.02 362.11 477.89
  Q 364.16 483.72 365.62 489.15
  Q 368.53 499.95 370.94 509.72
  Q 371.75 512.99 374.70 513.46
  Q 375.21 513.54 375.64 513.28
  Q 377.40 512.22 377.89 510.32
  Q 380.84 498.89 383.67 487.86
  C 384.50 484.64 385.67 481.43 386.74 478.27
  Q 395.30 452.89 414.37 434.11
  C 421.96 426.64 429.94 419.31 438.47 413.34
  C 444.33 409.24 449.14 403.79 451.61 397.12
  C 454.28 389.93 451.73 382.44 444.71 379.03
  Q 440.35 376.92 436.33 376.93
  Q 377.79 377.09 314.78 376.89
  Q 310.72 376.88 307.94 377.61
  C 299.71 379.80 294.84 386.76 296.91 395.51
  C 298.73 403.22 305.53 410.13 312.06 414.48
  C 313.95 415.73 315.56 417.22 317.34 418.60
  Z"
/>
<path fill="#2e3192" d="
  M 317.34 418.60
  C 315.56 417.22 313.95 415.73 312.06 414.48
  C 305.53 410.13 298.73 403.22 296.91 395.51
  C 294.84 386.76 299.71 379.80 307.94 377.61
  Q 310.72 376.88 314.78 376.89
  Q 377.79 377.09 436.33 376.93
  Q 440.35 376.92 444.71 379.03
  C 451.73 382.44 454.28 389.93 451.61 397.12
  C 449.14 403.79 444.33 409.24 438.47 413.34
  C 429.94 419.31 421.96 426.64 414.37 434.11
  Q 395.30 452.89 386.74 478.27
  C 385.67 481.43 384.50 484.64 383.67 487.86
  Q 380.84 498.89 377.89 510.32
  Q 377.40 512.22 375.64 513.28
  Q 375.21 513.54 374.70 513.46
  Q 371.75 512.99 370.94 509.72
  Q 368.53 499.95 365.62 489.15
  Q 364.16 483.72 362.11 477.89
  Q 355.10 458.02 343.43 443.88
  Q 335.82 434.66 327.22 427.09
  C 323.72 424.01 320.71 421.20 317.34 418.60
  Z"
/>
<path fill="#b5b1da" d="
  M 678.96 536.05
  Q 661.96 537.94 648.20 547.30
  C 630.99 559.01 620.64 580.41 627.58 600.96
  Q 630.24 608.84 634.29 614.58
  C 642.65 626.43 659.19 630.29 672.88 627.83
  C 678.20 626.88 682.90 624.40 686.87 620.65
  Q 688.81 618.82 691.72 618.25
  Q 692.31 618.14 692.85 618.39
  C 697.36 620.50 693.47 627.40 691.39 630.03
  C 682.49 641.30 669.04 645.07 655.18 643.24
  Q 641.28 641.40 630.24 633.47
  Q 615.89 623.16 611.59 605.94
  Q 603.67 574.26 621.33 549.11
  Q 629.90 536.90 643.34 532.21
  C 646.74 531.02 650.16 531.11 653.60 530.51
  Q 657.04 529.91 656.65 526.66
  Q 655.78 519.40 653.00 507.09
  C 646.89 480.03 634.18 452.77 614.99 432.72
  Q 586.29 402.76 545.71 396.01
  Q 537.84 394.70 529.48 394.52
  Q 519.37 394.30 513.44 394.99
  Q 462.92 400.89 429.02 436.20
  Q 402.23 464.12 391.53 504.73
  Q 390.84 507.33 390.40 509.89
  C 388.98 518.10 385.72 527.65 377.76 531.18
  C 371.87 533.81 365.81 528.44 363.12 523.43
  Q 360.19 517.97 358.92 511.31
  Q 358.34 508.25 357.63 505.46
  Q 350.06 475.59 333.70 452.55
  Q 309.69 418.75 270.17 403.13
  Q 260.60 399.35 251.04 397.36
  Q 231.31 393.26 212.49 394.96
  Q 170.77 398.74 139.69 427.36
  C 112.41 452.48 97.12 490.19 92.41 526.50
  Q 91.90 530.42 96.10 530.63
  Q 107.02 531.19 115.26 536.94
  C 124.50 543.40 131.35 552.62 135.35 563.21
  Q 144.70 587.94 134.97 613.36
  Q 132.18 620.64 126.80 626.37
  Q 112.24 641.89 90.78 643.58
  Q 83.54 644.15 76.11 642.16
  Q 62.96 638.63 56.02 627.40
  C 54.74 625.34 54.09 623.12 54.23 620.73
  A 2.50 2.49 -88.5 0 1 56.71 618.37
  Q 59.56 618.36 61.79 620.44
  C 66.66 624.98 72.08 627.53 78.74 628.25
  Q 94.32 629.92 107.32 621.88
  C 115.56 616.78 120.65 605.23 122.70 595.85
  Q 124.79 586.29 121.95 576.09
  C 116.12 555.17 97.55 541.38 76.49 537.03
  Q 72.46 536.19 68.28 535.93
  Q 75.33 535.61 83.71 538.26
  Q 101.94 544.03 112.67 557.00
  Q 119.82 565.64 122.30 574.36
  Q 126.00 587.41 122.45 600.03
  Q 119.50 610.49 113.22 617.45
  Q 103.85 627.84 87.95 629.02
  C 78.33 629.73 69.07 628.47 61.95 621.46
  C 60.88 620.41 59.43 619.61 58.05 619.02
  A 2.09 2.09 0.0 0 0 55.17 620.52
  Q 54.45 623.96 56.37 626.80
  C 66.57 641.87 83.95 645.96 100.80 641.20
  C 118.93 636.08 132.24 623.80 136.87 605.63
  C 139.92 593.62 140.11 579.88 136.23 568.04
  Q 131.31 553.06 121.95 543.36
  C 116.88 538.11 109.01 533.39 101.50 531.94
  Q 97.49 531.17 93.48 530.63
  A 1.64 1.64 0.0 0 1 92.06 529.17
  Q 91.70 525.50 92.31 521.89
  C 95.71 501.57 101.79 481.43 110.88 464.19
  Q 122.25 442.61 138.00 427.58
  Q 147.89 418.14 162.22 409.77
  C 176.82 401.24 194.55 395.70 210.74 394.46
  C 217.00 393.98 224.10 393.68 230.51 394.06
  Q 272.16 396.52 304.76 421.63
  C 321.42 434.46 335.27 450.66 344.75 469.34
  Q 348.00 475.73 350.16 480.68
  Q 354.88 491.51 358.33 505.28
  Q 358.98 507.88 359.51 510.66
  Q 361.05 518.76 365.33 525.40
  C 367.65 529.02 372.90 532.27 377.40 530.37
  Q 383.42 527.84 386.36 521.05
  C 389.00 514.96 389.83 508.31 391.56 501.85
  Q 396.62 483.02 407.06 464.06
  Q 415.87 448.05 430.90 433.40
  Q 445.26 419.39 458.87 411.75
  Q 485.82 396.62 513.51 394.49
  C 522.38 393.81 532.04 393.54 540.88 394.69
  Q 563.93 397.69 582.58 407.40
  Q 597.75 415.29 612.06 428.55
  Q 615.63 431.86 619.18 436.27
  C 622.02 439.79 625.04 443.27 627.71 447.04
  Q 636.11 458.90 642.29 472.79
  Q 644.85 478.54 645.51 480.35
  Q 651.94 497.85 653.15 503.87
  Q 654.87 512.42 656.80 522.63
  Q 657.39 525.71 656.98 529.02
  A 2.03 2.02 -88.8 0 1 655.13 530.80
  Q 634.44 532.32 622.23 549.18
  Q 615.23 558.84 611.61 571.87
  C 610.14 577.13 609.90 582.75 609.88 588.26
  Q 609.83 602.74 615.71 615.20
  Q 619.62 623.48 625.65 628.82
  Q 636.21 638.16 649.08 641.44
  C 665.92 645.73 683.73 641.48 692.93 626.21
  C 693.93 624.54 694.87 621.07 693.18 619.52
  Q 691.68 618.15 689.56 619.63
  C 686.26 621.94 683.59 624.97 679.85 626.54
  Q 674.09 628.94 667.50 629.12
  C 652.43 629.51 638.74 624.67 631.12 611.05
  C 624.78 599.76 622.62 585.12 627.21 572.98
  Q 630.75 563.64 636.08 557.42
  Q 650.46 540.64 672.49 536.45
  Q 674.62 536.04 678.96 536.05
  Z"
/>
<path fill="#2e3192" d="
  M 678.96 536.05
  L 685.30 535.92
  Q 694.81 536.57 700.24 537.77
  Q 723.19 542.85 735.30 563.01
  Q 747.58 583.47 748.52 607.14
  C 749.45 630.77 741.60 654.65 724.83 671.27
  C 708.72 687.24 685.65 695.02 663.25 695.30
  Q 653.04 695.43 644.02 693.44
  C 620.45 688.22 602.15 672.55 589.60 652.12
  Q 586.56 647.19 583.79 642.15
  Q 583.42 641.48 582.76 641.84
  Q 572.43 647.49 560.63 648.75
  Q 551.01 649.77 541.52 650.35
  Q 523.21 651.48 506.62 657.83
  Q 496.46 661.72 493.27 670.01
  Q 491.78 673.90 491.84 678.70
  Q 491.91 683.68 493.18 687.96
  Q 494.08 690.99 494.95 694.23
  Q 495.29 695.50 494.69 696.60
  A 1.22 1.21 -66.4 0 1 493.23 697.18
  Q 489.34 695.85 486.50 692.72
  C 477.68 683.01 468.62 669.75 466.94 657.03
  C 465.55 646.50 468.97 636.51 476.21 628.63
  C 478.69 625.93 480.43 621.54 478.54 618.10
  Q 474.09 610.00 472.90 600.81
  C 470.94 585.72 475.36 569.55 485.42 557.84
  C 498.03 543.17 517.49 537.97 536.50 540.21
  Q 540.44 540.68 544.21 542.33
  A 1.44 1.43 39.8 0 1 544.44 544.84
  C 542.72 545.99 540.77 546.74 538.81 547.28
  Q 525.76 550.87 522.69 562.27
  Q 520.38 570.85 524.04 578.95
  C 527.49 586.58 534.16 591.18 542.51 592.89
  C 554.69 595.39 565.68 593.49 574.92 585.33
  Q 579.62 581.18 581.11 579.32
  Q 589.51 568.91 594.29 557.74
  Q 599.84 544.80 599.68 530.36
  L 599.72 526.24
  Q 600.09 517.97 597.87 509.25
  C 590.65 480.84 568.87 458.60 540.82 450.84
  C 522.60 445.80 502.47 447.73 485.62 455.43
  C 463.90 465.36 447.16 484.07 440.60 507.32
  Q 437.37 518.79 438.05 531.75
  Q 438.47 539.69 439.86 545.97
  C 441.19 552.00 434.88 554.13 430.47 555.47
  Q 429.80 555.67 430.22 556.24
  Q 431.62 558.13 433.41 559.87
  C 440.81 567.06 446.65 574.70 449.45 584.66
  Q 452.97 597.16 452.42 613.32
  C 451.50 639.97 434.47 665.51 411.72 678.84
  C 389.54 691.84 363.51 692.53 340.41 681.11
  Q 328.85 675.40 319.97 665.97
  Q 304.34 649.38 298.49 626.47
  Q 297.06 620.88 296.71 615.22
  Q 295.73 599.53 299.19 586.20
  Q 302.11 574.94 309.75 566.22
  Q 313.88 561.51 318.82 556.58
  A 0.71 0.71 0.0 0 0 318.51 555.40
  C 314.90 554.35 307.91 551.91 308.97 546.87
  Q 316.81 509.71 295.39 481.25
  Q 276.81 456.56 246.41 449.90
  Q 236.38 447.70 226.23 448.11
  C 197.15 449.29 172.53 465.24 158.39 490.47
  Q 149.72 505.95 148.98 524.92
  Q 148.96 525.28 149.07 525.62
  Q 149.37 526.60 149.66 526.23
  Q 149.63 527.61 149.24 528.43
  Q 148.93 543.43 154.54 556.99
  Q 160.19 570.65 170.67 581.85
  Q 186.46 598.73 208.92 592.24
  Q 220.38 588.93 224.87 579.02
  Q 229.16 569.57 225.57 560.16
  Q 221.89 550.53 209.83 547.29
  Q 206.54 546.41 204.00 544.49
  A 0.88 0.86 32.0 0 1 203.74 543.41
  C 204.95 541.00 213.18 539.90 215.84 539.78
  Q 225.12 539.37 232.57 540.69
  C 254.21 544.52 269.54 558.51 274.80 579.67
  Q 276.13 585.03 276.45 590.15
  C 276.99 598.82 275.53 608.93 271.17 616.68
  Q 267.65 622.93 272.72 628.32
  Q 274.09 629.77 275.23 631.37
  Q 284.02 643.57 282.10 656.76
  C 280.10 670.53 271.06 683.68 261.69 693.55
  Q 259.44 695.92 256.00 697.14
  C 255.27 697.40 254.65 697.09 254.03 696.74
  C 253.69 693.98 254.93 690.95 256.22 687.00
  Q 256.98 684.67 257.13 679.73
  C 257.41 670.29 253.84 663.06 244.73 658.98
  Q 228.85 651.85 207.59 650.34
  Q 198.96 649.73 190.76 649.06
  Q 177.37 647.97 165.71 641.55
  Q 165.49 641.42 165.37 641.65
  C 156.18 659.64 143.27 675.74 125.76 685.59
  C 101.34 699.32 69.47 697.84 44.38 685.55
  Q 32.46 679.70 24.04 671.02
  Q 4.47 650.84 0.95 622.25
  Q -3.06 589.61 15.13 561.03
  Q 24.13 546.89 39.61 540.71
  Q 49.83 536.62 61.24 536.38
  Q 62.37 536.36 61.29 536.02
  Q 61.23 536.00 60.77 535.96
  L 68.28 535.93
  Q 72.46 536.19 76.49 537.03
  C 97.55 541.38 116.12 555.17 121.95 576.09
  Q 124.79 586.29 122.70 595.85
  C 120.65 605.23 115.56 616.78 107.32 621.88
  Q 94.32 629.92 78.74 628.25
  C 72.08 627.53 66.66 624.98 61.79 620.44
  Q 59.56 618.36 56.71 618.37
  A 2.50 2.49 -88.5 0 0 54.23 620.73
  C 54.09 623.12 54.74 625.34 56.02 627.40
  Q 62.96 638.63 76.11 642.16
  Q 83.54 644.15 90.78 643.58
  Q 112.24 641.89 126.80 626.37
  Q 132.18 620.64 134.97 613.36
  Q 144.70 587.94 135.35 563.21
  C 131.35 552.62 124.50 543.40 115.26 536.94
  Q 107.02 531.19 96.10 530.63
  Q 91.90 530.42 92.41 526.50
  C 97.12 490.19 112.41 452.48 139.69 427.36
  Q 170.77 398.74 212.49 394.96
  Q 231.31 393.26 251.04 397.36
  Q 260.60 399.35 270.17 403.13
  Q 309.69 418.75 333.70 452.55
  Q 350.06 475.59 357.63 505.46
  Q 358.34 508.25 358.92 511.31
  Q 360.19 517.97 363.12 523.43
  C 365.81 528.44 371.87 533.81 377.76 531.18
  C 385.72 527.65 388.98 518.10 390.40 509.89
  Q 390.84 507.33 391.53 504.73
  Q 402.23 464.12 429.02 436.20
  Q 462.92 400.89 513.44 394.99
  Q 519.37 394.30 529.48 394.52
  Q 537.84 394.70 545.71 396.01
  Q 586.29 402.76 614.99 432.72
  C 634.18 452.77 646.89 480.03 653.00 507.09
  Q 655.78 519.40 656.65 526.66
  Q 657.04 529.91 653.60 530.51
  C 650.16 531.11 646.74 531.02 643.34 532.21
  Q 629.90 536.90 621.33 549.11
  Q 603.67 574.26 611.59 605.94
  Q 615.89 623.16 630.24 633.47
  Q 641.28 641.40 655.18 643.24
  C 669.04 645.07 682.49 641.30 691.39 630.03
  C 693.47 627.40 697.36 620.50 692.85 618.39
  Q 692.31 618.14 691.72 618.25
  Q 688.81 618.82 686.87 620.65
  C 682.90 624.40 678.20 626.88 672.88 627.83
  C 659.19 630.29 642.65 626.43 634.29 614.58
  Q 630.24 608.84 627.58 600.96
  C 620.64 580.41 630.99 559.01 648.20 547.30
  Q 661.96 537.94 678.96 536.05
  Z
  M 402.10 611.22
  A 27.58 27.58 0.0 0 0 374.52 583.64
  A 27.58 27.58 0.0 0 0 346.94 611.22
  A 27.58 27.58 0.0 0 0 374.52 638.80
  A 27.58 27.58 0.0 0 0 402.10 611.22
  Z"
/>
<path fill="#b5b1da" d="
  M 599.72 526.24
  Q 599.17 523.49 598.99 520.68
  Q 598.73 516.65 598.45 515.10
  C 594.21 491.23 579.28 470.88 558.53 458.89
  Q 546.30 451.83 532.85 449.82
  Q 504.49 445.58 480.05 459.11
  Q 458.72 470.92 447.07 492.96
  C 443.27 500.14 440.53 508.74 439.50 516.76
  Q 438.96 520.96 438.45 525.51
  Q 438.07 528.83 438.50 531.80
  C 438.98 535.18 438.91 538.86 439.80 542.16
  C 440.64 545.31 442.20 548.64 439.36 551.39
  Q 436.08 554.57 431.44 555.97
  A 0.50 0.50 0.0 0 0 431.24 556.81
  C 438.90 564.14 445.62 571.14 449.15 581.46
  Q 451.84 589.30 452.61 597.39
  C 453.93 611.19 453.23 624.36 448.08 637.28
  Q 440.95 655.19 427.21 668.22
  Q 411.19 683.42 389.32 688.35
  Q 378.99 690.68 368.85 689.70
  Q 339.72 686.90 320.38 667.48
  Q 306.38 653.41 299.97 633.71
  Q 292.14 609.64 298.98 584.52
  C 300.50 578.91 304.01 571.96 307.77 567.29
  Q 312.02 562.00 317.63 557.03
  A 0.60 0.59 -56.8 0 0 317.42 556.02
  C 313.29 554.69 307.15 551.19 308.43 545.98
  C 309.55 541.41 309.84 537.03 310.39 532.43
  Q 310.83 528.73 310.52 524.94
  Q 309.96 517.93 308.68 511.17
  Q 307.99 507.57 304.35 498.14
  Q 299.87 486.54 290.75 476.55
  Q 265.74 449.14 228.89 448.82
  Q 204.53 448.61 183.90 463.15
  C 168.64 473.90 156.85 490.04 152.07 508.48
  Q 150.30 515.34 150.23 518.00
  Q 150.12 522.12 149.66 526.23
  Q 149.37 526.60 149.07 525.62
  Q 148.96 525.28 148.98 524.92
  Q 149.72 505.95 158.39 490.47
  C 172.53 465.24 197.15 449.29 226.23 448.11
  Q 236.38 447.70 246.41 449.90
  Q 276.81 456.56 295.39 481.25
  Q 316.81 509.71 308.97 546.87
  C 307.91 551.91 314.90 554.35 318.51 555.40
  A 0.71 0.71 0.0 0 1 318.82 556.58
  Q 313.88 561.51 309.75 566.22
  Q 302.11 574.94 299.19 586.20
  Q 295.73 599.53 296.71 615.22
  Q 297.06 620.88 298.49 626.47
  Q 304.34 649.38 319.97 665.97
  Q 328.85 675.40 340.41 681.11
  C 363.51 692.53 389.54 691.84 411.72 678.84
  C 434.47 665.51 451.50 639.97 452.42 613.32
  Q 452.97 597.16 449.45 584.66
  C 446.65 574.70 440.81 567.06 433.41 559.87
  Q 431.62 558.13 430.22 556.24
  Q 429.80 555.67 430.47 555.47
  C 434.88 554.13 441.19 552.00 439.86 545.97
  Q 438.47 539.69 438.05 531.75
  Q 437.37 518.79 440.60 507.32
  C 447.16 484.07 463.90 465.36 485.62 455.43
  C 502.47 447.73 522.60 445.80 540.82 450.84
  C 568.87 458.60 590.65 480.84 597.87 509.25
  Q 600.09 517.97 599.72 526.24
  Z"
/>
<path fill="#b5b1da" d="
  M 149.24 528.43
  Q 149.99 531.70 150.18 535.14
  Q 150.39 538.96 150.97 542.14
  Q 152.56 550.87 155.69 558.02
  Q 159.46 566.63 167.35 577.14
  Q 173.59 585.46 183.45 590.31
  Q 189.73 593.41 196.67 593.33
  Q 201.34 593.28 206.18 592.26
  Q 211.90 591.06 215.48 588.57
  Q 225.60 581.51 226.63 569.90
  Q 226.99 565.92 225.12 560.74
  C 222.89 554.51 216.30 549.63 210.00 548.00
  C 207.88 547.45 205.98 546.61 204.10 545.49
  Q 202.34 544.45 203.63 542.85
  C 205.71 540.27 211.94 539.30 215.03 539.05
  C 231.94 537.71 249.91 542.76 262.11 554.72
  Q 264.30 556.86 268.17 562.56
  Q 271.09 566.85 272.71 570.94
  Q 282.68 596.14 270.71 619.71
  C 269.55 622.00 270.90 624.79 272.46 626.52
  Q 277.71 632.35 280.62 639.33
  C 286.64 653.70 281.14 669.28 272.12 681.92
  Q 266.91 689.23 262.08 694.40
  Q 259.73 696.92 255.40 698.01
  Q 254.92 698.13 254.52 697.83
  Q 254.03 697.47 254.03 696.74
  C 254.65 697.09 255.27 697.40 256.00 697.14
  Q 259.44 695.92 261.69 693.55
  C 271.06 683.68 280.10 670.53 282.10 656.76
  Q 284.02 643.57 275.23 631.37
  Q 274.09 629.77 272.72 628.32
  Q 267.65 622.93 271.17 616.68
  C 275.53 608.93 276.99 598.82 276.45 590.15
  Q 276.13 585.03 274.80 579.67
  C 269.54 558.51 254.21 544.52 232.57 540.69
  Q 225.12 539.37 215.84 539.78
  C 213.18 539.90 204.95 541.00 203.74 543.41
  A 0.88 0.86 32.0 0 0 204.00 544.49
  Q 206.54 546.41 209.83 547.29
  Q 221.89 550.53 225.57 560.16
  Q 229.16 569.57 224.87 579.02
  Q 220.38 588.93 208.92 592.24
  Q 186.46 598.73 170.67 581.85
  Q 160.19 570.65 154.54 556.99
  Q 148.93 543.43 149.24 528.43
  Z"
/>
<path fill="#b5b1da" d="
  M 599.68 530.36
  Q 599.84 544.80 594.29 557.74
  Q 589.51 568.91 581.11 579.32
  Q 579.62 581.18 574.92 585.33
  C 565.68 593.49 554.69 595.39 542.51 592.89
  C 534.16 591.18 527.49 586.58 524.04 578.95
  Q 520.38 570.85 522.69 562.27
  Q 525.76 550.87 538.81 547.28
  C 540.77 546.74 542.72 545.99 544.44 544.84
  A 1.44 1.43 39.8 0 0 544.21 542.33
  Q 540.44 540.68 536.50 540.21
  C 517.49 537.97 498.03 543.17 485.42 557.84
  C 475.36 569.55 470.94 585.72 472.90 600.81
  Q 474.09 610.00 478.54 618.10
  C 480.43 621.54 478.69 625.93 476.21 628.63
  C 468.97 636.51 465.55 646.50 466.94 657.03
  C 468.62 669.75 477.68 683.01 486.50 692.72
  Q 489.34 695.85 493.23 697.18
  A 1.22 1.21 -66.4 0 0 494.69 696.60
  Q 495.29 695.50 494.95 694.23
  Q 494.08 690.99 493.18 687.96
  Q 491.91 683.68 491.84 678.70
  Q 491.78 673.90 493.27 670.01
  Q 496.46 661.72 506.62 657.83
  Q 523.21 651.48 541.52 650.35
  Q 551.01 649.77 560.63 648.75
  Q 572.43 647.49 582.76 641.84
  Q 583.42 641.48 583.79 642.15
  Q 586.56 647.19 589.60 652.12
  C 602.15 672.55 620.45 688.22 644.02 693.44
  Q 653.04 695.43 663.25 695.30
  C 685.65 695.02 708.72 687.24 724.83 671.27
  C 741.60 654.65 749.45 630.77 748.52 607.14
  Q 747.58 583.47 735.30 563.01
  Q 723.19 542.85 700.24 537.77
  Q 694.81 536.57 685.30 535.92
  Q 706.45 535.11 721.93 546.58
  Q 730.46 552.90 738.01 566.17
  Q 748.57 584.75 749.17 608.71
  Q 749.96 640.39 731.75 664.65
  Q 725.52 672.94 717.27 678.85
  Q 704.66 687.88 690.26 691.94
  Q 680.55 694.69 671.33 695.63
  Q 649.92 697.82 630.63 690.05
  C 613.06 682.98 598.84 668.52 588.84 652.22
  Q 586.03 647.62 583.54 643.38
  A 1.09 1.08 -28.4 0 0 582.13 642.96
  C 579.07 644.44 576.17 646.02 572.86 646.95
  Q 565.03 649.14 557.55 649.78
  Q 547.81 650.61 538.04 651.43
  Q 520.67 652.87 505.74 659.18
  C 500.17 661.53 493.54 667.23 492.92 673.65
  C 492.71 675.76 491.78 677.62 492.24 679.77
  C 492.88 682.72 493.14 685.87 494.10 688.71
  Q 495.07 691.61 495.86 695.28
  C 496.29 697.31 494.30 698.47 492.55 697.75
  C 489.51 696.52 486.75 694.42 484.62 691.88
  C 474.74 680.09 466.00 667.24 465.87 652.02
  C 465.79 642.60 470.08 633.84 476.62 626.71
  C 478.44 624.72 479.50 621.61 478.08 619.02
  C 470.70 605.52 470.09 589.37 474.85 574.87
  Q 477.90 565.57 484.40 557.61
  C 495.90 543.55 515.52 537.79 533.63 539.00
  C 536.68 539.21 543.38 540.30 545.56 543.02
  A 1.49 1.49 0.0 0 1 545.31 545.13
  C 542.14 547.60 538.47 547.81 534.99 549.44
  Q 523.11 554.98 522.22 568.44
  Q 522.12 569.89 522.94 573.62
  Q 523.52 576.28 524.67 578.49
  Q 530.93 590.52 544.55 592.55
  C 547.66 593.02 551.00 593.62 554.16 593.34
  Q 568.84 592.03 578.63 580.69
  Q 584.04 574.42 588.53 567.13
  Q 592.89 560.05 595.52 551.90
  Q 598.84 541.60 599.68 530.36
  Z"
/>
<path fill="#b5b1da" d="
  M 60.77 535.96
  Q 61.23 536.00 61.29 536.02
  Q 62.37 536.36 61.24 536.38
  Q 49.83 536.62 39.61 540.71
  Q 24.13 546.89 15.13 561.03
  Q -3.06 589.61 0.95 622.25
  Q 4.47 650.84 24.04 671.02
  Q 32.46 679.70 44.38 685.55
  C 69.47 697.84 101.34 699.32 125.76 685.59
  C 143.27 675.74 156.18 659.64 165.37 641.65
  Q 165.49 641.42 165.71 641.55
  Q 177.37 647.97 190.76 649.06
  Q 198.96 649.73 207.59 650.34
  Q 228.85 651.85 244.73 658.98
  C 253.84 663.06 257.41 670.29 257.13 679.73
  Q 256.98 684.67 256.22 687.00
  C 254.93 690.95 253.69 693.98 254.03 696.74
  Q 253.33 696.13 253.45 695.50
  Q 253.89 693.24 254.38 691.25
  Q 255.60 686.24 256.69 679.86
  C 257.18 677.00 256.06 674.87 255.69 672.11
  C 255.14 668.09 250.51 663.53 247.55 661.53
  Q 243.13 658.55 236.50 656.51
  Q 223.51 652.53 213.08 651.65
  Q 201.16 650.64 189.54 649.56
  C 181.95 648.85 173.97 646.96 167.15 643.05
  A 1.34 1.34 0.0 0 0 165.30 643.58
  Q 159.13 655.11 151.72 664.27
  Q 121.35 701.80 72.63 694.99
  Q 49.43 691.75 31.44 678.44
  Q 25.10 673.75 18.49 665.88
  Q 12.82 659.15 8.71 650.70
  Q 1.27 635.43 0.00 618.13
  L 0.00 600.00
  Q 0.44 598.14 1.20 593.50
  Q 2.98 582.58 9.27 569.43
  C 14.45 558.62 22.81 548.03 33.57 542.63
  Q 46.42 536.18 60.77 535.96
  Z"
/>
<path fill="#b5b1da" d="
  M 402.10 611.22
  A 27.58 27.58 0.0 0 1 374.52 638.80
  A 27.58 27.58 0.0 0 1 346.94 611.22
  A 27.58 27.58 0.0 0 1 374.52 583.64
  A 27.58 27.58 0.0 0 1 402.10 611.22
  Z
  M 401.39 611.20
  A 26.86 26.86 0.0 0 0 374.53 584.34
  A 26.86 26.86 0.0 0 0 347.67 611.20
  A 26.86 26.86 0.0 0 0 374.53 638.06
  A 26.86 26.86 0.0 0 0 401.39 611.20
  Z"
/>
</svg>
